<svg width="25" height="19" viewBox="0 0 25 19" fill="none" xmlns="http://www.w3.org/2000/svg">
<g clip-path="url(#clip0_1_21)">
<path d="M1.29982 18.8746H23.7002C24.4203 18.8323 25 18.2069 25 17.4497V2.24123C25 1.46058 24.3886 0.821017 23.6368 0.816315H1.36322C0.611413 0.821017 0 1.46058 0 2.24123V17.445C0 18.2069 0.57971 18.8323 1.29982 18.8746Z" fill="#FEFEFE"/>
<path d="M10.7518 11.6466V18.8746H14.2301V11.6466H25V8.03494H14.2301V0.816315H10.7518V8.03494H0V11.6466H10.7518Z" fill="#C8102E"/>
<path d="M15.3895 6.66176V0.816315H23.6458C24.2165 0.82572 24.7056 1.19723 24.9049 1.71923L15.3895 6.66176Z" fill="#012169"/>
<path d="M15.3895 13.0292V18.8746H23.7002C24.2482 18.8417 24.7101 18.4749 24.9049 17.9717L15.3895 13.0292Z" fill="#012169"/>
<path d="M9.59238 13.0292V18.8746H1.2998C0.751796 18.8417 0.28531 18.4749 0.0950928 17.9623L9.59238 13.0292Z" fill="#012169"/>
<path d="M9.59238 6.66176V0.816315H1.35415C0.783499 0.82572 0.289839 1.20194 0.0950928 1.72864L9.59238 6.66176Z" fill="#012169"/>
<path d="M0 6.83576H3.46467L0 5.03463V6.83576Z" fill="#012169"/>
<path d="M25 6.83576H21.5172L25 5.02522V6.83576Z" fill="#012169"/>
<path d="M25 12.8552H21.5172L25 14.6657V12.8552Z" fill="#012169"/>
<path d="M0 12.8552H3.46467L0 14.6563V12.8552Z" fill="#012169"/>
<path d="M25 2.34469L16.3723 6.83576H18.3016L25 3.35577V2.34469Z" fill="#C8102E"/>
<path d="M8.6096 12.8552H6.68025L0 16.3258V17.3369L8.62772 12.8552H8.6096Z" fill="#C8102E"/>
<path d="M4.76449 6.84046H6.69384L0 3.36047V4.36685L4.76449 6.84046Z" fill="#C8102E"/>
<path d="M20.2129 12.8505H18.2835L25 16.3446V15.3382L20.2129 12.8505Z" fill="#C8102E"/>
</g>
<defs>
<clipPath id="clip0_1_21">
<rect y="0.816315" width="25" height="18.0583" rx="3" fill="white"/>
</clipPath>
</defs>
</svg>
