<svg width="25" height="19" viewBox="0 0 25 19" fill="none" xmlns="http://www.w3.org/2000/svg">
<path d="M0 2.77821V5.55641H25V2.77821C25 2.04138 24.7073 1.33473 24.1864 0.813717C23.6655 0.292703 22.9589 0 22.2222 0H2.77778C2.04107 0 1.33453 0.292703 0.813592 0.813717C0.292658 1.33473 0 2.04138 0 2.77821H0Z" fill="#0099B5"/>
<path d="M25 15.2803V12.5021H0V15.2803C0 16.0171 0.292658 16.7238 0.813592 17.2448C1.33453 17.7658 2.04107 18.0585 2.77778 18.0585H22.2222C22.9589 18.0585 23.6655 17.7658 24.1864 17.2448C24.7073 16.7238 25 16.0171 25 15.2803Z" fill="#1EB53A"/>
<path d="M0 5.55678H25V6.59861H0V5.55678ZM0 11.4605H25V12.5023H0V11.4605Z" fill="#CE1126"/>
<path d="M0 9.0293V11.4602H25V6.59837H0V9.0293Z" fill="white"/>
<path d="M2.9167 2.8898C2.91676 2.37773 3.09812 1.88224 3.42863 1.49116C3.75913 1.10008 4.21743 0.838702 4.72225 0.753358C4.41148 0.700598 4.09294 0.716293 3.78886 0.799349C3.48478 0.882404 3.20248 1.03082 2.96166 1.23424C2.72084 1.43766 2.52729 1.69118 2.39453 1.97712C2.26177 2.26306 2.19299 2.57453 2.19299 2.8898C2.19299 3.20506 2.26177 3.51653 2.39453 3.80247C2.52729 4.08841 2.72084 4.34194 2.96166 4.54536C3.20248 4.74878 3.48478 4.89719 3.78886 4.98025C4.09294 5.0633 4.41148 5.079 4.72225 5.02624C4.21743 4.94089 3.75913 4.67951 3.42863 4.28844C3.09812 3.89736 2.91676 3.40186 2.9167 2.8898ZM6.16878 4.48935L6.07156 4.19L5.97434 4.48935H5.65906L5.91392 4.67479L5.8167 4.97415L6.07156 4.7887L6.32573 4.97415L6.2285 4.67479L6.48337 4.48935H6.16878ZM8.04517 4.48935L7.94795 4.19L7.85073 4.48935H7.53614L7.791 4.67479L7.69378 4.97415L7.94795 4.7887L8.20281 4.97415L8.10559 4.67479L8.36045 4.48935H8.04517ZM7.94795 2.4564L7.85073 2.75575H7.53614L7.791 2.94119L7.69378 3.24055L7.94795 3.0551L8.20281 3.24055L8.10559 2.94119L8.36045 2.75575H8.04517L7.94795 2.4564ZM9.92225 4.48935L9.82503 4.19L9.72781 4.48935H9.41323L9.66739 4.67479L9.57017 4.97415L9.82503 4.7887L10.0799 4.97415L9.98267 4.67479L10.2368 4.48935H9.92225ZM9.82503 2.4564L9.72781 2.75575H9.41323L9.66739 2.94119L9.57017 3.24055L9.82503 3.0551L10.0799 3.24055L9.98267 2.94119L10.2368 2.75575H9.92225L9.82503 2.4564ZM9.82503 0.722797L9.72781 1.02215H9.41323L9.66739 1.20759L9.57017 1.50695L9.82503 1.3215L10.0799 1.50695L9.98267 1.20759L10.2368 1.02215H9.92225L9.82503 0.722797ZM11.7993 4.48935L11.7021 4.19L11.6049 4.48935H11.2896L11.5445 4.67479L11.4473 4.97415L11.7021 4.7887L11.9563 4.97415L11.8591 4.67479L12.1139 4.48935H11.7993ZM11.7021 2.4564L11.6049 2.75575H11.2896L11.5445 2.94119L11.4473 3.24055L11.7021 3.0551L11.9563 3.24055L11.8591 2.94119L12.1139 2.75575H11.7993L11.7021 2.4564ZM11.7021 0.722797L11.6049 1.02215H11.2896L11.5445 1.20759L11.4473 1.50695L11.7021 1.3215L11.9563 1.50695L11.8591 1.20759L12.1139 1.02215H11.7993L11.7021 0.722797ZM13.6757 4.48935L13.5785 4.19L13.4813 4.48935H13.1667L13.4216 4.67479L13.3243 4.97415L13.5785 4.7887L13.8334 4.97415L13.7361 4.67479L13.991 4.48935H13.6757ZM13.5785 2.4564L13.4813 2.75575H13.1667L13.4216 2.94119L13.3243 3.24055L13.5785 3.0551L13.8334 3.24055L13.7361 2.94119L13.991 2.75575H13.6757L13.5785 2.4564ZM13.5785 0.722797L13.4813 1.02215H13.1667L13.4216 1.20759L13.3243 1.50695L13.5785 1.3215L13.8334 1.50695L13.7361 1.20759L13.991 1.02215H13.6757L13.5785 0.722797Z" fill="white"/>
</svg>
